<svg width="32" height="22" viewBox="0 0 32 22" fill="none" xmlns="http://www.w3.org/2000/svg">
	<path
		d="M30.5732 3.43532C30.2141 2.0831 29.1561 1.01819 27.8126 0.656716C25.3774 -1.16325e-07 15.6129 0 15.6129 0C15.6129 0 5.8483 -1.16325e-07 3.41318 0.656716C2.06968 1.01813 1.0116 2.0831 0.652508 3.43532C0 5.8863 0 11 0 11C0 11 0 16.1137 0.652508 18.5647C1.0116 19.9169 2.06968 20.9818 3.41318 21.3433C5.8483 22 15.6129 22 15.6129 22C15.6129 22 25.3774 22 27.8126 21.3433C29.1561 20.9818 30.2141 19.9169 30.5732 18.5647C31.2257 16.1137 31.2257 11 31.2257 11C31.2257 11 31.2257 5.8863 30.5732 3.43532Z"
		fill="#FF0000"
	/>
	<path d="M12.4193 15.6429L20.5806 11.0002L12.4193 6.35718V15.6429Z" fill="white" />
</svg>
