
<svg version="1.1"
    id="MarkerPin7"
    xmlns="http://www.w3.org/2000/svg"
    xmlns:xlink="http://www.w3.org/1999/xlink"
    x="0"
    y="0"
    width="37.5"
    height="40"
    preserveAspectRatio="xMinYMin meet"
    viewBox="0 0 50.135 60.333"
    shape-rendering="geometricPrecision"
    xml:space="preserve">

    <circle fill="#EDECE6" cx="24.256" cy="25.312" r="15.931"/>
    <rect x="15.54" y="33.896" transform="matrix(0.6998 -0.7143 0.7143 0.6998 -22.6293 32.6569)" fill="#EDECE6" width="23.999" height="18.712"/>
    <path fill="#873131" stroke="#B56B6B" stroke-miterlimit="10" d="M25.071,59.612l6.432-6.88c0,0-15.892-16.212-18.594-18.913
    	s-3.1-7.549-2.781-10.092c0.317-2.543,2.86-13.431,15.495-13.669c12.556,1.986,14.464,11.285,14.146,15.973
    	c0.318,4.052-3.814,8.9-7.549,12.874c2.701,2.543,6.674,6.518,6.674,6.518s11.131-7.551,10.73-21.537
    	C49.224,9.9,37.313,0.5,25.071,0.5C12.829,0.5-0.034,10.933,0.517,25.555c1.027,10.648,5.08,14.226,6.828,16.053
    	S25.071,59.612,25.071,59.612z"/>
</svg>
