
<svg version="1.1"
	id="MarkerPin2"
	xmlns="http://www.w3.org/2000/svg"
	xmlns:xlink="http://www.w3.org/1999/xlink"
	x="0px"
	y="0px"
    width="37.5"
    height="40"
    preserveAspectRatio="xMinYMin meet"
	viewBox="0 0 50.109 60.333"
	xml:space="preserve">

	<ellipse fill="#EDECE6" cx="24.175" cy="25.185" rx="16.212" ry="16.171"/>
	<polygon fill="#EDECE6" points="12.168,45.452 29.259,28.051 42.86,41.342 25.77,58.743 "/>
	<path fill="#4F5CB7" stroke="#2B3793" stroke-miterlimit="10" d="M25.004,60.002l6.546-6.986c0,0-16.172-16.455-18.922-19.195
		c-2.75-2.742-3.155-7.663-2.83-10.245c0.321-2.582,2.909-13.633,15.77-13.875c12.774,2.018,14.718,11.455,14.395,16.215
		c0.321,4.112-3.882,9.036-7.684,13.067c2.748,2.58,6.793,6.617,6.793,6.617s11.327-7.664,10.918-21.862
		C49.582,9.541,37.462,0,25.004,0C12.547-0.002-0.542,10.588,0.017,25.431c1.045,10.81,5.169,14.439,6.948,16.294
		C8.743,43.581,25.004,60.002,25.004,60.002z"/>
</svg>
