<svg
	version="1.1"
	id="MarkerPin1"
	xmlns="http://www.w3.org/2000/svg"
	xmlns:xlink="http://www.w3.org/1999/xlink"
	x="0"
	y="0"
	width="37.5"
	height="40"
	preserveAspectRatio="xMinYMin meet"
	shape-rendering="geometricPrecision"
	viewBox="0 0 50.135 60.333"
	xml:space="preserve"
>
	<circle fill="#EDECE6" cx="24.255" cy="25.312" r="15.931" />
	<rect x="15.539" y="33.896" transform="matrix(0.6998 -0.7144 0.7144 0.6998 -22.6298 32.6589)" fill="#EDECE6" width="23.999" height="18.712" />
	<path
		fill="#999999"
		stroke="#CCCCCC"
		stroke-miterlimit="10"
		d="M25.071,59.612l6.433-6.879c0,0-15.893-16.212-18.595-18.913
        c-2.702-2.702-3.1-7.55-2.781-10.092c0.317-2.543,2.86-13.431,15.495-13.669c12.557,1.986,14.464,11.285,14.146,15.973
        c0.318,4.052-3.813,8.9-7.549,12.873c2.701,2.544,6.675,6.518,6.675,6.518s11.131-7.551,10.73-21.537S37.313,0.5,25.071,0.5
        S-0.034,10.933,0.517,25.555c1.027,10.649,5.08,14.225,6.828,16.053C9.093,43.435,25.071,59.612,25.071,59.612z"
	/>
</svg>
