
<svg version="1.1"
	id="MarkerPin15"
	xmlns="http://www.w3.org/2000/svg"
	xmlns:xlink="http://www.w3.org/1999/xlink"
	x="0"
	y="0"
    width="37.5"
    height="40"
    preserveAspectRatio="xMinYMin meet"
	viewBox="0 0 50.111 60.333"
	xml:space="preserve">

	<ellipse fill="#EDECE6" cx="24.175" cy="25.184" rx="16.211" ry="16.17"/>
	<polygon fill="#EDECE6" points="42.861,41.342 25.771,58.741 12.17,45.45 29.26,28.049 "/>
	<path fill="#873131" stroke="#B56B6B" stroke-miterlimit="10" d="M25.004,59.999l6.545-6.982c0,0-16.172-16.455-18.921-19.197
		c-2.75-2.74-3.155-7.663-2.83-10.243c0.322-2.582,2.91-13.633,15.768-13.875c12.777,2.016,14.72,11.455,14.396,16.213
		c0.323,4.113-3.882,9.034-7.683,13.067c2.749,2.582,6.792,6.617,6.792,6.617s11.326-7.664,10.919-21.862
		C49.583,9.541,37.462,0,25.004,0S-0.543,10.59,0.017,25.432c1.045,10.807,5.169,14.44,6.949,16.293
		C8.745,43.579,25.004,59.999,25.004,59.999z"/>
</svg>
