
<svg version="1.1"
	id="MarkerPin13"
	xmlns="http://www.w3.org/2000/svg"
	xmlns:xlink="http://www.w3.org/1999/xlink"
	x="0px"
	y="0px"
    width="37.5"
    height="40"
    preserveAspectRatio="xMinYMin meet"
	viewBox="0 0 50.109 60.33"
	xml:space="preserve">

	<ellipse fill="#EDECE6" cx="24.174" cy="25.186" rx="16.21" ry="16.169"/>
	<polygon fill="#EDECE6" points="42.862,41.341 25.771,58.745 12.167,45.453 29.258,28.049 "/>
	<path fill="#D89336" stroke="#9B7024" stroke-miterlimit="10" d="M25.004,60.001l6.546-6.982c0,0-16.173-16.455-18.923-19.195
		c-2.75-2.744-3.153-7.664-2.829-10.245c0.321-2.581,2.909-13.634,15.767-13.875c12.777,2.017,14.718,11.455,14.394,16.213
		c0.324,4.112-3.879,9.034-7.682,13.067c2.749,2.582,6.793,6.615,6.793,6.615s11.327-7.664,10.919-21.86
		C49.581,9.542,37.459,0,25.004,0C12.546,0-0.544,10.59,0.018,25.433c1.045,10.809,5.169,14.438,6.948,16.293
		C8.744,43.583,25.004,60.001,25.004,60.001z"/>
</svg>
