
<svg version="1.1"
	id="MarkerPin9"
	xmlns="http://www.w3.org/2000/svg"
	xmlns:xlink="http://www.w3.org/1999/xlink"
	x="0px"
	y="0px"
    width="37.5"
    height="40"
    preserveAspectRatio="xMinYMin meet"
	viewBox="0 0 50.111 60.333"
	xml:space="preserve">

	<ellipse fill="#EDECE6" cx="24.237" cy="25.486" rx="16.254" ry="16.26"/>
	<polygon fill="#EDECE6" points="42.976,41.729 25.839,59.228 12.199,45.863 29.336,28.364 "/>
	<path fill="#E5DB1C" stroke="#A8A40E" stroke-miterlimit="10" d="M25.07,60.33l6.562-7.021c0,0-16.215-16.547-18.972-19.304
		C9.904,31.248,9.498,26.3,9.824,23.706c0.323-2.595,2.918-13.708,15.809-13.951c12.812,2.028,14.759,11.518,14.434,16.303
		c0.324,4.135-3.892,9.083-7.702,13.139c2.756,2.596,6.81,6.651,6.81,6.651s11.357-7.706,10.948-21.981
		C49.713,9.593,37.561,0,25.07,0S-0.545,10.648,0.017,25.571C1.065,36.439,5.2,40.089,6.984,41.955S25.07,60.33,25.07,60.33z"/>
</svg>
