
<svg version="1.1"
    id="MarkerPin2"
    xmlns="http://www.w3.org/2000/svg"
    xmlns:xlink="http://www.w3.org/1999/xlink"
    x="0"
    y="0"
    width="37.5"
    height="40"
    preserveAspectRatio="xMinYMin meet"
    viewBox="0 0 50.135 60.333"
    shape-rendering="geometricPrecision"
	xml:space="preserve">

    <circle fill="#EDECE6" cx="24.477" cy="25.747" r="15.931"/>
    <rect x="15.759" y="34.333" transform="matrix(-0.6998 0.7143 -0.7143 -0.6998 78.3924 54.4344)" fill="#EDECE6" width="23.999" height="18.711"/>
    <path fill="#4F5CB7" stroke="#2B3793" stroke-miterlimit="10" d="M25.292,60.047l6.432-6.881c0,0-15.892-16.211-18.594-18.912
    	c-2.702-2.701-3.1-7.549-2.781-10.092c0.317-2.543,2.86-13.431,15.496-13.669C38.399,12.48,40.308,21.778,39.99,26.467
    	c0.317,4.052-3.814,8.901-7.55,12.874c2.701,2.543,6.675,6.519,6.675,6.519s11.131-7.551,10.729-21.537
    	c-0.4-13.986-12.311-23.386-24.553-23.386C13.05,0.935,0.188,11.368,0.738,25.99c1.027,10.648,5.08,14.225,6.828,16.053
    	C9.314,43.87,25.292,60.047,25.292,60.047z"/>
</svg>
