
<svg version="1.1"
    id="MarkerPin4"
    xmlns="http://www.w3.org/2000/svg"
    xmlns:xlink="http://www.w3.org/1999/xlink"
    x="0"
    y="0"
    width="37.5"
    height="40"
    preserveAspectRatio="xMinYMin meet"
    viewBox="0 0 50.135 60.333"
    shape-rendering="geometricPrecision"
    xml:space="preserve">

    <circle fill="#EDECE6" cx="24.255" cy="25.312" r="15.931"/>
    <rect x="15.54" y="33.896" transform="matrix(0.6998 -0.7144 0.7144 0.6998 -22.6295 32.6575)" fill="#EDECE6" width="23.999" height="18.712"/>
    <path fill="#5F4A5E" stroke="#815AA0" stroke-miterlimit="10" d="M25.071,59.612l6.433-6.88c0,0-15.893-16.211-18.595-18.912
    	c-2.702-2.702-3.1-7.55-2.781-10.092c0.317-2.543,2.86-13.431,15.495-13.669c12.557,1.986,14.464,11.285,14.146,15.973
    	c0.318,4.052-3.813,8.899-7.549,12.874c2.701,2.543,6.675,6.517,6.675,6.517s11.131-7.55,10.73-21.537
    	C49.224,9.9,37.313,0.5,25.071,0.5S-0.034,10.933,0.517,25.555c1.027,10.648,5.08,14.225,6.828,16.052
    	C9.093,43.435,25.071,59.612,25.071,59.612z"/>
</svg>
