
<svg version="1.1"
	id="MarkerPin14"
	xmlns="http://www.w3.org/2000/svg"
	xmlns:xlink="http://www.w3.org/1999/xlink"
	x="0px"
	y="0px"
    width="37.5"
    height="40"
    preserveAspectRatio="xMinYMin meet"
	viewBox="0 0 50.109 60.333"
	xml:space="preserve">

	<ellipse fill="#EDECE6" cx="24.173" cy="25.184" rx="16.211" ry="16.17"/>
	<polygon fill="#EDECE6" points="42.861,41.338 25.771,58.743 12.166,45.45 29.257,28.045 "/>
	<path fill="#659B56" stroke="#277C3D" stroke-miterlimit="10" d="M25.003,60l6.546-6.982c0,0-16.173-16.457-18.923-19.197
		c-2.75-2.742-3.154-7.665-2.829-10.245c0.322-2.58,2.91-13.633,15.768-13.873c12.777,2.016,14.719,11.455,14.395,16.213
		c0.324,4.113-3.88,9.034-7.682,13.065c2.749,2.582,6.792,6.617,6.792,6.617s11.327-7.664,10.919-21.862
		C49.58,9.541,37.461,0,25.004,0C12.546,0-0.544,10.59,0.018,25.432c1.045,10.809,5.169,14.44,6.948,16.293
		C8.744,43.579,25.003,60,25.003,60z"/>
</svg>
