
<svg version="1.1"
	id="MarkerPin11"
	xmlns="http://www.w3.org/2000/svg"
	xmlns:xlink="http://www.w3.org/1999/xlink"
	x="0px"
	y="0px"
    width="37.5"
    height="40"
    preserveAspectRatio="xMinYMin meet"
	viewBox="0 0 50.111 60.33"
	xml:space="preserve">

	<ellipse fill="#EDECE6" cx="24.174" cy="25.185" rx="16.211" ry="16.17"/>
	<polygon fill="#EDECE6" points="42.861,41.341 25.77,58.74 12.17,45.449 29.259,28.05 "/>
	<path fill="#D64747" stroke="#873838" stroke-miterlimit="10" d="M25.003,59.999l6.545-6.982c0,0-16.171-16.455-18.921-19.197
		c-2.75-2.741-3.155-7.662-2.83-10.243c0.323-2.581,2.911-13.634,15.768-13.875c12.777,2.016,14.72,11.455,14.396,16.213
		c0.323,4.112-3.882,9.034-7.683,13.067c2.749,2.582,6.792,6.615,6.792,6.615s11.326-7.664,10.919-21.859
		C49.582,9.541,37.462,0,25.004,0S-0.543,10.59,0.017,25.431c1.045,10.809,5.169,14.44,6.948,16.295
		C8.745,43.579,25.003,59.999,25.003,59.999z"/>
</svg>
