
<svg version="1.1"
    id="MarkerPin5"
    xmlns="http://www.w3.org/2000/svg"
    xmlns:xlink="http://www.w3.org/1999/xlink"
    x="0"
    y="0"
    width="37.5"
    height="40"
    preserveAspectRatio="xMinYMin meet"
    viewBox="0 0 50.135 60.333"
    shape-rendering="geometricPrecision"
    xml:space="preserve">

    <circle fill="#EDECE6" cx="24.255" cy="25.312" r="15.93"/>
    <rect x="15.539" y="33.896" transform="matrix(0.6998 -0.7144 0.7144 0.6998 -22.6301 32.6595)" fill="#EDECE6" width="23.999" height="18.712"/>
    <path fill="#D89336" stroke="#9B7024" stroke-miterlimit="10" d="M25.071,59.611l6.433-6.879c0,0-15.893-16.211-18.595-18.912
    	c-2.702-2.703-3.1-7.55-2.781-10.093c0.317-2.543,2.86-13.431,15.495-13.669c12.557,1.986,14.463,11.285,14.145,15.973
    	c0.318,4.052-3.812,8.9-7.549,12.874c2.701,2.544,6.676,6.517,6.676,6.517s11.131-7.55,10.73-21.536
    	C49.225,9.9,37.312,0.5,25.071,0.5C12.829,0.5-0.034,10.933,0.517,25.555c1.027,10.648,5.08,14.225,6.828,16.053
    	S25.071,59.611,25.071,59.611z"/>
</svg>
