
<svg version="1.1"
	id="MarkerPin12"
	xmlns="http://www.w3.org/2000/svg"
	xmlns:xlink="http://www.w3.org/1999/xlink"
	x="0px"
	y="0px"
    width="37.5"
    height="40"
    preserveAspectRatio="xMinYMin meet"
	viewBox="0 0 50.111 60.333"
	xml:space="preserve">

	<ellipse fill="#EDECE6" cx="24.172" cy="25.184" rx="16.211" ry="16.17"/>
	<polygon fill="#EDECE6" points="42.863,41.336 25.771,58.739 12.167,45.448 29.259,28.043 "/>
	<path fill="#5F4A5E" stroke="#815AA0" stroke-miterlimit="10" d="M25.003,59.999l6.546-6.982c0,0-16.173-16.455-18.922-19.195
		c-2.75-2.742-3.155-7.665-2.83-10.245c0.322-2.58,2.91-13.632,15.768-13.873c12.777,2.016,14.719,11.453,14.396,16.213
		c0.323,4.112-3.88,9.032-7.682,13.067c2.748,2.58,6.792,6.615,6.792,6.615s11.326-7.664,10.919-21.862
		C49.582,9.541,37.462,0,25.003,0C12.546,0-0.543,10.59,0.017,25.432C1.062,36.239,5.186,39.87,6.965,41.723
		C8.744,43.579,25.003,59.999,25.003,59.999z"/>
</svg>
